<?xml version="1.0" standalone="no"?>
<!DOCTYPE svg PUBLIC "-//W3C//DTD SVG 20010904//EN"
 "http://www.w3.org/TR/2001/REC-SVG-20010904/DTD/svg10.dtd">
<svg version="1.0" xmlns="http://www.w3.org/2000/svg"
 width="222.000000pt" height="222.000000pt" viewBox="0 0 222.000000 222.000000"
 preserveAspectRatio="xMidYMid meet">
<metadata>
Created by potrace 1.11, written by Peter Selinger 2001-2013
</metadata>
<g transform="translate(0.000000,222.000000) scale(0.100000,-0.100000)"
fill="#000000" stroke="none">
<path d="M334 1485 c-28 -12 -94 -72 -94 -85 0 -4 -22 -45 -50 -91 -27 -46
-52 -88 -53 -94 -2 -6 -14 -5 -30 4 -50 27 -60 127 -17 166 15 14 17 21 8 41
-14 30 -37 19 -69 -32 -42 -69 -20 -177 47 -220 l23 -16 -24 -49 c-64 -126 -1
-216 122 -175 17 5 22 4 18 -6 -3 -7 -29 -22 -57 -32 -120 -42 -160 -153 -63
-171 44 -8 87 24 131 97 32 54 46 67 96 91 32 16 85 53 117 83 l59 54 -5 -39
c-13 -96 110 -123 194 -42 12 11 34 21 48 21 14 0 48 11 75 24 28 13 50 20 50
16 0 -5 -4 -11 -9 -14 -7 -5 -8 -15 -2 -62 0 -6 14 -17 30 -24 41 -17 87 0
147 53 27 23 45 36 40 29 -13 -22 4 -69 30 -81 30 -13 94 0 114 24 12 14 16
13 39 -9 46 -42 128 -14 207 70 l30 34 1 -40 c1 -66 65 -101 145 -79 37 10
107 44 118 58 3 3 14 13 24 21 15 12 14 5 -8 -33 l-28 -47 40 0 c38 0 42 3 69
53 62 111 76 133 106 172 52 66 111 106 120 82 2 -7 -24 -63 -59 -126 -63
-115 -69 -138 -39 -172 38 -41 126 -2 218 98 23 24 25 32 14 41 -10 9 -25 0
-69 -42 -57 -55 -93 -75 -109 -59 -5 5 22 64 62 135 74 134 81 165 36 185 -26
12 -72 1 -98 -23 -20 -18 -27 -6 -8 13 8 8 0 11 -28 11 -38 1 -41 -2 -73 -56
-18 -31 -49 -83 -68 -115 -24 -41 -38 -55 -45 -48 -7 7 -25 -3 -59 -35 -77
-72 -153 -94 -182 -53 -11 16 -12 28 -4 51 10 27 14 29 47 26 66 -9 127 26
172 98 50 81 15 146 -73 138 -60 -6 -109 -55 -174 -174 -30 -56 -35 -61 -48
-51 -8 7 -31 -8 -75 -49 -58 -56 -92 -72 -105 -52 -3 5 55 113 128 240 74 127
131 234 128 237 -3 3 -19 5 -36 5 -29 0 -35 -8 -84 -95 l-53 -94 -33 19 c-66
40 -137 -7 -211 -139 -26 -45 -45 -69 -53 -66 -8 3 -30 -13 -50 -35 -44 -49
-97 -84 -117 -76 -19 7 -16 13 68 159 38 67 81 142 95 166 14 25 38 67 53 93
16 27 29 52 29 56 0 5 -15 9 -34 10 -33 2 -35 1 -97 -109 -35 -61 -71 -123
-79 -138 -8 -14 -30 -52 -49 -84 -23 -40 -37 -55 -44 -48 -7 7 -20 2 -41 -14
-33 -25 -86 -43 -86 -28 0 5 6 17 14 28 40 60 66 119 66 154 0 32 -6 44 -32
66 -27 23 -38 26 -72 21 -60 -10 -95 -43 -155 -145 -44 -75 -56 -89 -68 -80
-11 10 -22 3 -56 -33 -46 -50 -107 -98 -125 -98 -6 0 7 30 29 66 56 92 56 91
12 89 -29 0 -40 -6 -54 -30 -55 -90 -135 -130 -171 -85 -21 25 -18 43 16 103
20 38 23 39 81 42 136 6 259 113 272 237 5 49 3 56 -25 86 -16 17 -41 32 -54
33 -12 0 -30 2 -39 4 -8 1 -29 -3 -45 -10z m73 -63 c19 -12 26 -59 13 -97 -13
-38 -68 -98 -112 -121 -27 -14 -108 -28 -108 -18 0 3 25 49 55 102 73 126 111
160 152 134z m349 -186 c8 -33 -50 -137 -89 -160 -23 -13 -28 -21 -23 -39 6
-27 -1 -40 -32 -56 -53 -28 -67 13 -28 82 13 23 33 60 46 82 37 65 61 96 84
105 32 13 35 12 42 -14z m979 -6 c15 -47 -74 -141 -118 -124 -13 5 -11 14 14
57 47 81 91 109 104 67z m-397 -18 c6 -37 -94 -192 -144 -223 -39 -24 -68 -20
-56 8 17 41 109 197 130 220 28 30 66 28 70 -5z m-1189 -397 c-23 -38 -36 -44
-46 -18 -7 17 28 53 53 53 10 0 8 -9 -7 -35z"/>
</g>
</svg>
